HIERARCHY
ROOT Hips
{
 OFFSET 0.000000 0.000000 0.000000
 CHANNELS 6 Xposition Yposition Zposition Yrotation Xrotation Zrotation
 JOINT Chest
 {
  OFFSET 0.000000 10.385163 0.011643
  CHANNELS 3 Yrotation Xrotation Zrotation
  JOINT Chest2
  {
   OFFSET 0.000000 11.579334 -0.021150
   CHANNELS 3 Yrotation Xrotation Zrotation
   JOINT Chest3
   {
    OFFSET 0.000000 10.463212 0.000000
    CHANNELS 3 Yrotation Xrotation Zrotation
    JOINT Chest4
    {
     OFFSET 0.000000 10.463212 0.000000
     CHANNELS 3 Yrotation Xrotation Zrotation
     JOINT Neck
     {
      OFFSET 0.000000 14.544862 0.000000
      CHANNELS 3 Yrotation Xrotation Zrotation
      JOINT Head
      {
       OFFSET 0.000000 9.730630 -0.050295
       CHANNELS 3 Yrotation Xrotation Zrotation
       End Site
       {
        OFFSET 0.000000 18.757589 -0.026270
       }
      }
     }
     JOINT RightCollar
     {
      OFFSET -2.985174 8.102313 0.000000
      CHANNELS 3 Yrotation Xrotation Zrotation
      JOINT RightShoulder
      {
       OFFSET -13.558590 0.000000 0.000000
       CHANNELS 3 Yrotation Xrotation Zrotation
       JOINT RightElbow
       {
        OFFSET -28.208579 0.000000 0.000000
        CHANNELS 3 Yrotation Xrotation Zrotation
        JOINT RightWrist
        {
         OFFSET -23.322907 0.000000 0.010349
         CHANNELS 3 Yrotation Xrotation Zrotation
         End Site
         {
          OFFSET -17.603338 0.000000 0.000000
         }
        }
       }
      }
     }
     JOINT LeftCollar
     {
      OFFSET 2.985174 8.102313 0.000000
      CHANNELS 3 Yrotation Xrotation Zrotation
      JOINT LeftShoulder
      {
       OFFSET 13.558590 0.000000 0.000000
       CHANNELS 3 Yrotation Xrotation Zrotation
       JOINT LeftElbow
       {
        OFFSET 28.208579 0.000000 0.000000
        CHANNELS 3 Yrotation Xrotation Zrotation
        JOINT LeftWrist
        {
         OFFSET 23.322907 0.000000 0.010349
         CHANNELS 3 Yrotation Xrotation Zrotation
         End Site
         {
          OFFSET 17.603338 0.000000 0.000000
         }
        }
       }
      }
     }
    }
   }
  }
 }
 JOINT RightHip
 {
  OFFSET -8.341224 -0.057053 -0.005822
  CHANNELS 3 Yrotation Xrotation Zrotation
  JOINT RightKnee
  {
   OFFSET 0.000000 -44.280013 0.005508
   CHANNELS 3 Yrotation Xrotation Zrotation
   JOINT RightAnkle
   {
    OFFSET 0.000000 -43.261728 0.009315
    CHANNELS 3 Yrotation Xrotation Zrotation
    JOINT RightToe
    {
     OFFSET 0.000000 -8.082955 18.257715
     CHANNELS 3 Yrotation Xrotation Zrotation
     End Site
     {
      OFFSET 0.000000 -1.634678 7.189621
     }
    }
   }
  }
 }
 JOINT LeftHip
 {
  OFFSET 8.341224 -0.057053 -0.005822
  CHANNELS 3 Yrotation Xrotation Zrotation
  JOINT LeftKnee
  {
   OFFSET 0.000000 -44.280013 0.005508
   CHANNELS 3 Yrotation Xrotation Zrotation
   JOINT LeftAnkle
   {
    OFFSET 0.000000 -43.261728 0.009315
    CHANNELS 3 Yrotation Xrotation Zrotation
    JOINT LeftToe
    {
     OFFSET 0.000000 -8.082955 18.257715
     CHANNELS 3 Yrotation Xrotation Zrotation
     End Site
     {
      OFFSET 0.000000 -1.634678 7.189621
     }
    }
   }
  }
 }
}
MOTION
Frames: 15
Frame Time: 0.016667
0.000000 95.489079 0.000000 0.000000 -5.826342 0.000000 0.000000 11.116423 0.000000 0.000000 -5.290081 0.000000 0.000000 0.000000 0.000000 0.000000 0.000000 0.000000 0.000000 12.665069 0.000000 0.000000 0.575450 0.000000 0.000000 0.000000 0.000000 0.000000 0.000000 0.000000 2.337306 0.000000 0.000000 -2.337306 0.000000 0.000000 0.000000 0.000000 0.000000 0.000000 0.000000 0.000000 -2.337306 0.000000 0.000000 2.337306 0.000000 0.000000 0.000000 8.578828 0.000000 0.000000 1.905768 0.000000 0.000000 -4.658254 0.000000 0.000000 0.000000 0.000000 0.000000 8.578828 0.000000 0.000000 1.905768 0.000000 0.000000 -4.658254 0.000000 0.000000 0.000000 0.000000
-90.646849 97.323837 -184.573617 -160.343480 -19.936479 0.148734 1.144815 11.098561 3.079144 0.432390 4.940171 1.334384 0.432413 4.940193 1.334390 0.313317 3.706128 0.996672 2.325304 15.507526 -1.394094 4.858577 -7.288099 -3.464843 1.111796 -1.587212 3.211660 -3.916714 -14.286675 74.327885 0.219759 21.232288 -4.173906 3.963930 0.447711 0.930260 -5.463974 -6.229856 -13.627564 6.686892 -4.810453 -74.158628 -4.357937 19.914439 -0.658137 2.489164 -0.514077 -1.867031 -7.816459 28.066410 -2.436887 -0.546405 -4.209755 0.093565 -6.543669 -4.268941 4.736049 0.000000 0.000000 0.000000 3.037410 23.906737 5.296762 -2.209762 -1.049576 0.150534 -0.484201 -5.245444 -5.984681 0.000000 0.000000 0.000000
-90.614132 97.306111 -184.633410 -160.174840 -19.684261 0.197202 1.263399 10.978862 3.067407 0.485974 4.887716 1.326813 0.485991 4.887731 1.326817 0.353652 3.666888 0.990616 2.297292 15.524547 -1.367929 4.795825 -7.259365 -3.404816 1.141576 -1.569447 3.276053 -3.443552 -14.623954 74.331168 0.097680 21.036721 -4.283748 3.895397 0.477121 0.958899 -5.405023 -6.187017 -13.539275 6.684321 -4.867958 -74.080097 -4.319137 19.507238 -0.632830 2.347704 -0.621468 -1.722396 -7.986922 27.802987 -2.480499 -0.561709 -4.150715 0.146108 -6.546971 -4.385024 4.637911 0.000000 0.000000 0.000000 2.974401 23.638928 5.219432 -2.483501 -1.011503 0.222630 -0.331606 -5.263536 -6.051552 0.000000 -0.000000 -0.000000
-90.582991 97.289515 -184.695056 -160.040357 -19.463793 0.240319 1.368880 10.877964 3.057023 0.533583 4.843514 1.320125 0.533583 4.843514 1.320125 0.389466 3.633811 0.985266 2.272080 15.534190 -1.342153 4.738812 -7.244104 -3.346945 1.166087 -1.560770 3.336727 -2.990651 -14.950565 74.351245 0.025517 20.865811 -4.363096 3.839804 0.508233 0.970527 -5.353275 -6.152199 -13.461442 6.673067 -4.911895 -74.025532 -4.222541 19.128233 -0.578869 2.228720 -0.719494 -1.600683 -8.103727 27.582833 -2.509386 -0.578938 -4.099056 0.198589 -6.562243 -4.496945 4.554902 0.000000 -0.000000 0.000000 2.955207 23.404437 5.165334 -2.735585 -0.967900 0.292492 -0.204496 -5.291041 -6.111123 0.000000 0.000000 0.000000
-90.554348 97.274714 -184.758937 -159.956480 -19.287660 0.275207 1.458158 10.804134 3.050025 0.573766 4.811257 1.315244 0.573760 4.811252 1.315243 0.419689 3.609693 0.981326 2.251313 15.531536 -1.316517 4.690721 -7.251411 -3.291590 1.182559 -1.565093 3.391725 -2.556299 -15.271098 74.399720 0.007028 20.738356 -4.418077 3.798382 0.550123 0.961592 -5.310413 -6.128602 -13.396938 6.647948 -4.935251 -74.003427 -4.051112 18.759582 -0.488478 2.141573 -0.811703 -1.504719 -8.146467 27.425651 -2.522117 -0.594377 -4.059035 0.253288 -6.596562 -4.603093 4.495343 -0.000000 -0.000000 0.000000 3.023747 23.214879 5.153377 -2.970315 -0.916576 0.360646 -0.122427 -5.333193 -6.159074 -0.000000 0.000000 0.000000
-90.527281 97.261042 -184.824671 -159.906690 -19.143166 0.304141 1.534323 10.748887 3.045185 0.607978 4.787189 1.311572 0.607977 4.787188 1.311572 0.445423 3.591718 0.978334 2.233272 15.521571 -1.291433 4.648239 -7.272101 -3.238617 1.193716 -1.578163 3.442821 -2.143011 -15.581583 74.467452 0.038556 20.635610 -4.443802 3.769355 0.594148 0.935341 -5.274808 -6.112457 -13.343179 6.614212 -4.944398 -74.004845 -3.824036 18.418763 -0.370408 2.078358 -0.894532 -1.430424 -8.136334 27.311932 -2.521229 -0.611708 -4.026427 0.307953 -6.642974 -4.705110 4.450976 -0.000000 -0.000000 0.000000 3.135431 23.058658 5.164058 -3.183365 -0.859863 0.426656 -0.065799 -5.384873 -6.199710 0.000000 0.000000 0.000000
-90.500604 97.247639 -184.892963 -159.875637 -19.023976 0.328595 1.593565 10.705524 3.040405 0.634616 4.768287 1.308280 0.634616 4.768287 1.308280 0.465461 3.577597 0.975682 2.215609 15.511956 -1.268453 4.607209 -7.291987 -3.189684 1.202434 -1.596140 3.491703 -1.779462 -15.858694 74.548136 0.159582 20.525218 -4.394691 3.760601 0.615993 0.883476 -5.248830 -6.100236 -13.302863 6.578919 -4.944901 -74.026969 -3.539744 18.186673 -0.220164 2.038806 -0.947516 -1.387413 -8.083159 27.226381 -2.499397 -0.643989 -3.995880 0.355737 -6.692663 -4.803701 4.412079 0.000000 0.000000 0.000000 3.200837 22.934280 5.163644 -3.340182 -0.799239 0.486964 -0.001377 -5.440126 -6.238634 0.000000 0.000000 0.000000
-90.474035 97.234175 -184.964892 -159.857668 -18.935701 0.347294 1.632231 10.675305 3.035695 0.652049 4.755088 1.305440 0.652047 4.755086 1.305440 0.478577 3.567728 0.973434 2.196450 15.505269 -1.247893 4.564144 -7.306360 -3.144561 1.209037 -1.620252 3.539169 -1.475418 -16.098998 74.642309 0.388446 20.379243 -4.252992 3.779973 0.601739 0.792588 -5.234215 -6.090295 -13.277651 6.544552 -4.941077 -74.071349 -3.181325 18.099071 -0.027633 2.021488 -0.960832 -1.377105 -7.966247 27.174474 -2.442377 -0.711907 -3.968462 0.393508 -6.748740 -4.897134 4.377621 -0.000000 -0.000000 0.000000 3.175530 22.847838 5.136768 -3.416892 -0.729560 0.542111 0.083629 -5.499822 -6.277586 0.000000 0.000000 0.000000
-90.447856 97.220978 -185.039379 -159.858451 -18.872705 0.361399 1.653990 10.656901 3.031328 0.661911 4.747036 1.303093 0.661911 4.747035 1.303093 0.486008 3.561709 0.971609 2.177674 15.498995 -1.229412 4.522539 -7.319827 -3.103432 1.213175 -1.649105 3.584454 -1.221935 -16.305778 74.752229 0.706792 20.224146 -4.038111 3.820080 0.566669 0.675082 -5.229277 -6.084032 -13.265921 6.508579 -4.928571 -74.136372 -2.764575 18.118454 0.198529 2.028499 -0.943787 -1.397044 -7.806333 27.150552 -2.364504 -0.794815 -3.943109 0.424441 -6.808129 -4.987138 4.348637 -0.000000 -0.000000 0.000000 3.104177 22.793105 5.099725 -3.437381 -0.655966 0.591496 0.176436 -5.563063 -6.314895 0.000000 0.000000 0.000000
-90.421724 97.208178 -185.113894 -159.879616 -18.811801 0.376130 1.666018 10.639771 3.025469 0.667493 4.739482 1.300305 0.667493 4.739482 1.300305 0.490232 3.556055 0.969487 2.162577 15.493149 -1.213557 4.488747 -7.332178 -3.068537 1.216730 -1.674987 3.626948 -1.019552 -16.465598 74.874353 1.099391 20.108786 -3.759594 3.865868 0.529828 0.561350 -5.231248 -6.082558 -13.265396 6.470527 -4.900030 -74.214545 -2.336242 18.216134 0.435487 2.064721 -0.904398 -1.451068 -7.675329 27.122786 -2.301212 -0.843779 -3.911229 0.451114 -6.852688 -5.079591 4.318444 0.000000 0.000000 0.000000 3.031222 22.750197 5.066611 -3.438785 -0.595332 0.629836 0.271898 -5.621214 -6.351057 0.000000 0.000000 0.000000
-90.395689 97.195806 -185.189057 -159.922051 -18.745582 0.391679 1.669331 10.618664 3.018178 0.669277 4.730097 1.297103 0.669276 4.730096 1.297103 0.491615 3.549015 0.967085 2.150639 15.490241 -1.198712 4.461094 -7.338864 -3.036555 1.219751 -1.692943 3.664881 -0.873907 -16.569581 75.012409 1.583041 20.031837 -3.407880 3.913995 0.494495 0.456694 -5.242029 -6.087401 -13.277918 6.423829 -4.849433 -74.306529 -1.886495 18.404222 0.692199 2.135185 -0.839805 -1.546183 -7.617983 27.079853 -2.271813 -0.827641 -3.866889 0.473678 -6.871243 -5.178490 4.284212 0.000000 -0.000000 0.000000 2.974082 22.716454 5.045969 -3.439397 -0.559054 0.653733 0.372801 -5.669410 -6.387316 0.000000 0.000000 0.000000
-90.369702 97.183830 -185.264249 -159.984841 -18.681439 0.407778 1.662914 10.598814 3.009455 0.666781 4.721202 1.293485 0.666781 4.721202 1.293485 0.489792 3.542335 0.964404 2.142376 15.487781 -1.186495 4.441253 -7.344411 -3.010811 1.222193 -1.707843 3.700068 -0.779553 -16.626201 75.163744 2.140735 19.992848 -2.990069 3.968114 0.457431 0.355863 -5.259728 -6.097061 -13.301629 6.374957 -4.783049 -74.411806 -1.422152 18.669372 0.961332 2.233750 -0.751834 -1.675404 -7.589493 27.033260 -2.256750 -0.777575 -3.815965 0.491905 -6.874965 -5.279795 4.248688 0.000000 -0.000000 0.000000 2.915298 22.694565 5.029213 -3.420979 -0.535774 0.666640 0.476324 -5.712537 -6.422402 0.000000 0.000000 0.000000
-90.343278 97.172282 -185.335082 -160.066874 -18.618374 0.428947 1.650899 10.585411 2.997308 0.661840 4.715127 1.288450 0.661840 4.715127 1.288450 0.486142 3.537763 0.960676 2.142644 15.478262 -1.182287 4.440599 -7.362276 -3.003496 1.225811 -1.726740 3.737265 -0.720156 -16.648073 75.314727 2.707733 20.042848 -2.538452 4.022905 0.426692 0.273803 -5.275903 -6.108131 -13.328695 6.342987 -4.711862 -74.521062 -1.016819 18.946726 1.194452 2.348827 -0.655924 -1.821877 -7.527572 26.985603 -2.233404 -0.738136 -3.767583 0.507787 -6.879214 -5.377318 4.213552 0.000000 0.000000 0.000000 2.847016 22.672712 5.004712 -3.365892 -0.508245 0.673549 0.568898 -5.756604 -6.453004 0.000000 0.000000 0.000000
-90.315020 97.161154 -185.401546 -160.177422 -18.560013 0.456611 1.636095 10.582154 2.980910 0.655689 4.713529 1.281549 0.655690 4.713529 1.281549 0.481588 3.536544 0.955553 2.152811 15.457419 -1.187518 4.462408 -7.400231 -3.017995 1.232559 -1.752049 3.778497 -0.694490 -16.636543 75.460874 3.287547 20.205106 -2.044950 4.075782 0.405907 0.220120 -5.286708 -6.120422 -13.356884 6.337737 -4.637229 -74.634964 -0.687719 19.247994 1.382767 2.490259 -0.540993 -1.993685 -7.406121 26.940996 -2.191831 -0.723756 -3.723427 0.520596 -6.885601 -5.468662 4.180137 0.000000 0.000000 0.000000 2.794759 22.651940 4.980877 -3.278460 -0.473052 0.674296 0.640372 -5.803649 -6.475949 0.000000 0.000000 0.000000
-90.286325 97.150453 -185.463651 -160.307178 -18.502677 0.489276 1.615675 10.585307 2.961068 0.647086 4.714732 1.273222 0.647086 4.714731 1.273221 0.475201 3.537417 0.949376 2.171525 15.429474 -1.200704 4.503450 -7.450563 -3.050859 1.240501 -1.781275 3.821797 -0.703512 -16.589859 75.606445 3.878710 20.455876 -1.512717 4.128947 0.390642 0.185358 -5.296007 -6.134181 -13.388395 6.349261 -4.557882 -74.752929 -0.418009 19.563162 1.534951 2.647463 -0.418109 -2.183303 -7.251322 26.895261 -2.142160 -0.720016 -3.681827 0.531080 -6.892523 -5.556225 4.147106 0.000000 0.000000 0.000000 2.733001 22.631145 4.949312 -3.154390 -0.433571 0.669010 0.700891 -5.851676 -6.494376 0.000000 0.000000 0.000000
